<svg id="visual" viewBox="0 0 900 600" width="900" height="600" xmlns="http://www.w3.org/2000/svg" xmlns:xlink="http://www.w3.org/1999/xlink" version="1.1"><path d="M0 97L82 121L164 181L245 91L327 139L409 157L491 91L573 169L655 109L736 163L818 157L900 157L900 0L818 0L736 0L655 0L573 0L491 0L409 0L327 0L245 0L164 0L82 0L0 0Z" fill="#8484da"></path><path d="M0 241L82 295L164 295L245 253L327 301L409 271L491 319L573 313L655 193L736 235L818 361L900 283L900 155L818 155L736 161L655 107L573 167L491 89L409 155L327 137L245 89L164 179L82 119L0 95Z" fill="#968dd7"></path><path d="M0 331L82 385L164 337L245 337L327 415L409 325L491 385L573 361L655 319L736 301L818 439L900 403L900 281L818 359L736 233L655 191L573 311L491 317L409 269L327 299L245 251L164 293L82 293L0 239Z" fill="#a497d4"></path><path d="M0 505L82 523L164 541L245 505L327 523L409 535L491 535L573 529L655 541L736 529L818 529L900 559L900 401L818 437L736 299L655 317L573 359L491 383L409 323L327 413L245 335L164 335L82 383L0 329Z" fill="#b0a1d1"></path><path d="M0 601L82 601L164 601L245 601L327 601L409 601L491 601L573 601L655 601L736 601L818 601L900 601L900 557L818 527L736 527L655 539L573 527L491 533L409 533L327 521L245 503L164 539L82 521L0 503Z" fill="#baaccf"></path></svg>