<svg id="visual" viewBox="0 0 900 600" width="900" height="600" xmlns="http://www.w3.org/2000/svg" xmlns:xlink="http://www.w3.org/1999/xlink" version="1.1"><rect x="0" y="0" width="900" height="600" fill="#ffffff"></rect><path d="M591 0L639 0L639 55L629 55L629 109L485 109L485 164L745 164L745 218L730 218L730 273L529 273L529 327L743 327L743 382L748 382L748 436L546 436L546 491L639 491L639 545L646 545L646 600L0 600L0 545L0 545L0 491L0 491L0 436L0 436L0 382L0 382L0 327L0 327L0 273L0 273L0 218L0 218L0 164L0 164L0 109L0 109L0 55L0 55L0 0L0 0Z" fill="#fffde5"></path><path d="M395 0L413 0L413 55L425 55L425 109L315 109L315 164L268 164L268 218L410 218L410 273L485 273L485 327L322 327L322 382L496 382L496 436L438 436L438 491L413 491L413 545L443 545L443 600L0 600L0 545L0 545L0 491L0 491L0 436L0 436L0 382L0 382L0 327L0 327L0 273L0 273L0 218L0 218L0 164L0 164L0 109L0 109L0 55L0 55L0 0L0 0Z" fill="#e0fbe8"></path><path d="M273 0L223 0L223 55L316 55L316 109L125 109L125 164L219 164L219 218L266 218L266 273L142 273L142 327L153 327L153 382L248 382L248 436L191 436L191 491L317 491L317 545L256 545L256 600L0 600L0 545L0 545L0 491L0 491L0 436L0 436L0 382L0 382L0 327L0 327L0 273L0 273L0 218L0 218L0 164L0 164L0 109L0 109L0 55L0 55L0 0L0 0Z" fill="#c8f6f7"></path></svg>