<svg id="visual" viewBox="0 0 900 600" width="900" height="600" xmlns="http://www.w3.org/2000/svg" xmlns:xlink="http://www.w3.org/1999/xlink" version="1.1"><path d="M0 97L82 73L164 115L245 97L327 85L409 85L491 73L573 85L655 55L736 121L818 49L900 121L900 0L818 0L736 0L655 0L573 0L491 0L409 0L327 0L245 0L164 0L82 0L0 0Z" fill="#a8a8be"></path><path d="M0 151L82 103L164 175L245 163L327 163L409 145L491 139L573 115L655 139L736 199L818 121L900 157L900 119L818 47L736 119L655 53L573 83L491 71L409 83L327 83L245 95L164 113L82 71L0 95Z" fill="#8791a6"></path><path d="M0 217L82 133L164 229L245 223L327 193L409 205L491 175L573 181L655 187L736 241L818 187L900 223L900 155L818 119L736 197L655 137L573 113L491 137L409 143L327 161L245 161L164 173L82 101L0 149Z" fill="#677a8c"></path><path d="M0 343L82 241L164 313L245 361L327 271L409 409L491 373L573 397L655 367L736 361L818 307L900 367L900 221L818 185L736 239L655 185L573 179L491 173L409 203L327 191L245 221L164 227L82 131L0 215Z" fill="#496471"></path><path d="M0 457L82 451L164 493L245 487L327 469L409 505L491 463L573 505L655 517L736 499L818 463L900 481L900 365L818 305L736 359L655 365L573 395L491 371L409 407L327 269L245 359L164 311L82 239L0 341Z" fill="#2f4e56"></path><path d="M0 541L82 529L164 559L245 571L327 571L409 565L491 547L573 559L655 553L736 559L818 547L900 541L900 479L818 461L736 497L655 515L573 503L491 461L409 503L327 467L245 485L164 491L82 449L0 455Z" fill="#18393b"></path><path d="M0 601L82 601L164 601L245 601L327 601L409 601L491 601L573 601L655 601L736 601L818 601L900 601L900 539L818 545L736 557L655 551L573 557L491 545L409 563L327 569L245 569L164 557L82 527L0 539Z" fill="#052421"></path></svg>