<svg id="visual" viewBox="0 0 900 600" width="900" height="600" xmlns="http://www.w3.org/2000/svg" xmlns:xlink="http://www.w3.org/1999/xlink" version="1.1"><rect x="0" y="0" width="900" height="600" fill="#a8a8be"></rect><defs><linearGradient id="grad1_0" x1="33.3%" y1="0%" x2="100%" y2="100%"><stop offset="20%" stop-color="#052421" stop-opacity="1"></stop><stop offset="80%" stop-color="#052421" stop-opacity="1"></stop></linearGradient></defs><defs><linearGradient id="grad1_1" x1="33.3%" y1="0%" x2="100%" y2="100%"><stop offset="20%" stop-color="#052421" stop-opacity="1"></stop><stop offset="80%" stop-color="#1c3d40" stop-opacity="1"></stop></linearGradient></defs><defs><linearGradient id="grad1_2" x1="33.3%" y1="0%" x2="100%" y2="100%"><stop offset="20%" stop-color="#395760" stop-opacity="1"></stop><stop offset="80%" stop-color="#1c3d40" stop-opacity="1"></stop></linearGradient></defs><defs><linearGradient id="grad1_3" x1="33.3%" y1="0%" x2="100%" y2="100%"><stop offset="20%" stop-color="#395760" stop-opacity="1"></stop><stop offset="80%" stop-color="#5b7181" stop-opacity="1"></stop></linearGradient></defs><defs><linearGradient id="grad1_4" x1="33.3%" y1="0%" x2="100%" y2="100%"><stop offset="20%" stop-color="#808ca0" stop-opacity="1"></stop><stop offset="80%" stop-color="#5b7181" stop-opacity="1"></stop></linearGradient></defs><defs><linearGradient id="grad1_5" x1="33.3%" y1="0%" x2="100%" y2="100%"><stop offset="20%" stop-color="#808ca0" stop-opacity="1"></stop><stop offset="80%" stop-color="#a8a8be" stop-opacity="1"></stop></linearGradient></defs><defs><linearGradient id="grad2_0" x1="0%" y1="0%" x2="66.7%" y2="100%"><stop offset="20%" stop-color="#052421" stop-opacity="1"></stop><stop offset="80%" stop-color="#052421" stop-opacity="1"></stop></linearGradient></defs><defs><linearGradient id="grad2_1" x1="0%" y1="0%" x2="66.7%" y2="100%"><stop offset="20%" stop-color="#1c3d40" stop-opacity="1"></stop><stop offset="80%" stop-color="#052421" stop-opacity="1"></stop></linearGradient></defs><defs><linearGradient id="grad2_2" x1="0%" y1="0%" x2="66.7%" y2="100%"><stop offset="20%" stop-color="#1c3d40" stop-opacity="1"></stop><stop offset="80%" stop-color="#395760" stop-opacity="1"></stop></linearGradient></defs><defs><linearGradient id="grad2_3" x1="0%" y1="0%" x2="66.7%" y2="100%"><stop offset="20%" stop-color="#5b7181" stop-opacity="1"></stop><stop offset="80%" stop-color="#395760" stop-opacity="1"></stop></linearGradient></defs><defs><linearGradient id="grad2_4" x1="0%" y1="0%" x2="66.7%" y2="100%"><stop offset="20%" stop-color="#5b7181" stop-opacity="1"></stop><stop offset="80%" stop-color="#808ca0" stop-opacity="1"></stop></linearGradient></defs><defs><linearGradient id="grad2_5" x1="0%" y1="0%" x2="66.7%" y2="100%"><stop offset="20%" stop-color="#a8a8be" stop-opacity="1"></stop><stop offset="80%" stop-color="#808ca0" stop-opacity="1"></stop></linearGradient></defs><g transform="translate(900, 0)"><path d="M0 432.7C-27.9 421.1 -55.8 409.6 -78 392.3C-100.3 375 -117 351.9 -144.3 348.3C-171.5 344.7 -209.3 360.6 -236.7 354.2C-264 347.8 -280.9 319 -291.3 291.3C-301.8 263.6 -305.9 236.9 -325.9 217.8C-346 198.6 -381.9 187 -399.7 165.6C-417.6 144.1 -417.3 112.7 -419.8 83.5C-422.2 54.3 -427.5 27.1 -432.7 0L0 0Z" fill="#949aaf"></path><path d="M0 360.6C-23.2 351 -46.5 341.4 -65 326.9C-83.6 312.5 -97.5 293.2 -120.2 290.3C-142.9 287.3 -174.5 300.5 -197.2 295.2C-220 289.8 -234 265.9 -242.8 242.8C-251.5 219.7 -254.9 197.4 -271.6 181.5C-288.3 165.5 -318.2 155.9 -333.1 138C-348 120.1 -347.8 94 -349.8 69.6C-351.9 45.2 -356.2 22.6 -360.6 0L0 0Z" fill="#6d7f91"></path><path d="M0 288.4C-18.6 280.8 -37.2 273.1 -52 261.5C-66.9 250 -78 234.6 -96.2 232.2C-114.4 229.8 -139.6 240.4 -157.8 236.1C-176 231.9 -187.2 212.7 -194.2 194.2C-201.2 175.7 -203.9 157.9 -217.3 145.2C-230.6 132.4 -254.6 124.7 -266.5 110.4C-278.4 96.1 -278.2 75.2 -279.9 55.7C-281.5 36.2 -285 18.1 -288.4 0L0 0Z" fill="#496471"></path><path d="M0 216.3C-13.9 210.6 -27.9 204.8 -39 196.2C-50.2 187.5 -58.5 175.9 -72.1 174.2C-85.8 172.4 -104.7 180.3 -118.3 177.1C-132 173.9 -140.4 159.5 -145.7 145.7C-150.9 131.8 -153 118.5 -163 108.9C-173 99.3 -190.9 93.5 -199.9 82.8C-208.8 72 -208.7 56.4 -209.9 41.7C-211.1 27.1 -213.7 13.6 -216.3 0L0 0Z" fill="#2a4a50"></path><path d="M0 144.2C-9.3 140.4 -18.6 136.5 -26 130.8C-33.4 125 -39 117.3 -48.1 116.1C-57.2 114.9 -69.8 120.2 -78.9 118.1C-88 115.9 -93.6 106.3 -97.1 97.1C-100.6 87.9 -102 79 -108.6 72.6C-115.3 66.2 -127.3 62.3 -133.2 55.2C-139.2 48 -139.1 37.6 -139.9 27.8C-140.7 18.1 -142.5 9 -144.2 0L0 0Z" fill="#103030"></path><path d="M0 72.1C-4.6 70.2 -9.3 68.3 -13 65.4C-16.7 62.5 -19.5 58.6 -24 58.1C-28.6 57.5 -34.9 60.1 -39.4 59C-44 58 -46.8 53.2 -48.6 48.6C-50.3 43.9 -51 39.5 -54.3 36.3C-57.7 33.1 -63.6 31.2 -66.6 27.6C-69.6 24 -69.6 18.8 -70 13.9C-70.4 9 -71.2 4.5 -72.1 0L0 0Z" fill="#052421"></path></g><g transform="translate(0, 600)"><path d="M0 -432.7C24.5 -407.5 49 -382.2 73.5 -369.8C98.1 -357.3 122.8 -357.5 145.8 -352C168.8 -346.5 190 -335.3 220.6 -330.1C251.1 -324.9 291 -325.8 304.8 -304.8C318.5 -283.7 306.1 -240.7 324.3 -216.7C342.4 -192.6 391.1 -187.5 399.7 -165.6C408.3 -143.7 376.8 -105.1 375.6 -74.7C374.4 -44.3 403.6 -22.2 432.7 0L0 0Z" fill="#949aaf"></path><path d="M0 -360.6C20.4 -339.5 40.8 -318.5 61.3 -308.1C81.8 -297.7 102.4 -297.9 121.5 -293.3C140.6 -288.7 158.3 -279.4 183.8 -275.1C209.3 -270.8 242.5 -271.5 254 -254C265.4 -236.4 255.1 -200.6 270.2 -180.6C285.4 -160.5 325.9 -156.2 333.1 -138C340.3 -119.7 314 -87.6 313 -62.3C312 -36.9 336.3 -18.5 360.6 0L0 0Z" fill="#6d7f91"></path><path d="M0 -288.4C16.3 -271.6 32.6 -254.8 49 -246.5C65.4 -238.2 81.9 -238.3 97.2 -234.7C112.5 -231 126.7 -223.5 147 -220.1C167.4 -216.6 194 -217.2 203.2 -203.2C212.3 -189.1 204.1 -160.5 216.2 -144.4C228.3 -128.4 260.8 -125 266.5 -110.4C272.2 -95.8 251.2 -70.1 250.4 -49.8C249.6 -29.6 269 -14.8 288.4 0L0 0Z" fill="#496471"></path><path d="M0 -216.3C12.2 -203.7 24.5 -191.1 36.8 -184.9C49.1 -178.6 61.4 -178.7 72.9 -176C84.4 -173.2 95 -167.6 110.3 -165C125.6 -162.5 145.5 -162.9 152.4 -152.4C159.3 -141.9 153.1 -120.4 162.1 -108.3C171.2 -96.3 195.6 -93.7 199.9 -82.8C204.2 -71.8 188.4 -52.6 187.8 -37.4C187.2 -22.2 201.8 -11.1 216.3 0L0 0Z" fill="#2a4a50"></path><path d="M0 -144.2C8.2 -135.8 16.3 -127.4 24.5 -123.3C32.7 -119.1 40.9 -119.2 48.6 -117.3C56.3 -115.5 63.3 -111.8 73.5 -110C83.7 -108.3 97 -108.6 101.6 -101.6C106.2 -94.6 102 -80.2 108.1 -72.2C114.1 -64.2 130.4 -62.5 133.2 -55.2C136.1 -47.9 125.6 -35 125.2 -24.9C124.8 -14.8 134.5 -7.4 144.2 0L0 0Z" fill="#103030"></path><path d="M0 -72.1C4.1 -67.9 8.2 -63.7 12.3 -61.6C16.4 -59.5 20.5 -59.6 24.3 -58.7C28.1 -57.7 31.7 -55.9 36.8 -55C41.9 -54.2 48.5 -54.3 50.8 -50.8C53.1 -47.3 51 -40.1 54 -36.1C57.1 -32.1 65.2 -31.2 66.6 -27.6C68.1 -23.9 62.8 -17.5 62.6 -12.5C62.4 -7.4 67.3 -3.7 72.1 0L0 0Z" fill="#052421"></path></g></svg>